{"title":"I Am Ali(2014)(720pMKV)-desspratt-","uid":11294304,"size":2975590256,"categoryP":"video","categoryS":"hd___movies","magnet":"?xt=urn:btih:5b71e79fc060722d8b3f6dba8c3ae0eaeb0d08b5&amp;dn=I+Am+Ali%282014%29%28720pMKV%29-desspratt-&amp;tr=udp%3A%2F%2Ftracker.openbittorrent.com%3A80&amp;tr=udp%3A%2F%2Fopen.demonii.com%3A1337&amp;tr=udp%3A%2F%2Ftracker.coppersurfer.tk%3A6969&amp;tr=udp%3A%2F%2Fexodus.desync.com%3A6969","seeders":4,"leechers":0,"uploader":"desspratt","files":1,"time":1414362828,"description":"The language is English \nDirected and written by: Clare Lewins\nStarring by: Muhammad Ali, Muhammad Ali Jnr, Hana Ali\nGenres: Documentary | Biography | Sport\n720p HD\n\nGeneral  :                               : I Am Ali 2014 720p HD.mkv\nFormat                                   : Matroska\nFormat version                           : Version 2\nFile size                                : 2.77 GiB\nDuration                                 : 1h 51mn\nOverall bit rate mode                    : Variable\nOverall bit rate                         : 3 558 Kbps\nEncoded date                             : UTC 2014-10-13 06:35:04\nWriting application                      : mkvmerge v7.0.0 ('Where We Going') 32bit built on Jun  9 2014 15:08:34\nWriting library                          : libebml v1.3.0 + libmatroska v1.4.1\nDURATION                                 : 01:51:30.848000000\nNUMBER_OF_FRAMES                         : 209089\nNUMBER_OF_BYTES                          : 214107136\n_STATISTICS_WRITING_APP                  : mkvmerge v7.0.0 ('Where We Going') 32bit built on Jun  9 2014 15:08:34\n_STATISTICS_WRITING_DATE_UTC             : 2014-10-13 06:35:04\n_STATISTICS_TAGS                         : BPS DURATION NUMBER_OF_FRAMES NUMBER_OF_BYTES\n\nVideo\nID                                       : 1\nFormat                                   : AVC\nFormat/Info                              : Advanced Video Codec\nFormat profile                           : &lt;a class=&quot;__cf_email__&quot; href=&quot;/cdn-cgi/l/email-protection&quot; data-cfemail=&quot;ace4c5cbc4ece098829d&quot;&gt;[email&amp;#160;protected]&lt;/a&gt;&lt;script cf-hash='f9e31' type=&quot;text/javascript&quot;&gt;\n/* &lt;![CDATA[ */!function(){try{var t=&quot;currentScript&quot;in document?document.currentScript:function(){for(var t=document.getElementsByTagName(&quot;script&quot;),e=t.length;e--;)if(t[e].getAttribute(&quot;cf-hash&quot;))return t[e]}();if(t&amp;&amp;t.previousSibling){var e,r,n,i,c=t.previousSibling,a=c.getAttribute(&quot;data-cfemail&quot;);if(a){for(e=&quot;&quot;,r=parseInt(a.substr(0,2),16),n=2;a.length-n;n+=2)i=parseInt(a.substr(n,2),16)^r,e+=String.fromCharCode(i);e=document.createTextNode(e),c.parentNode.replaceChild(e,c)}}}catch(u){}}();/* ]]&gt; */&lt;/script&gt;\nFormat settings, CABAC                   : Yes\nFormat settings, ReFrames                : 3 frames\nCodec ID                                 : V_MPEG4/ISO/AVC\nDuration                                 : 1h 51mn\nBit rate mode                            : Variable\nBit rate                                 : 3 300 Kbps\nMaximum bit rate                         : 40.0 Mbps\nWidth                                    : 1 280 pixels\nHeight                                   : 718 pixels\nDisplay aspect ratio                     : 16:9\nFrame rate mode                          : Constant\nFrame rate                               : 23.976 fps\nColor space                              : YUV\nChroma subsampling                       : 4:2:0\nBit depth                                : 8 bits\nScan type                                : Progressive\nBits/(Pixel*Frame)                       : 0.150\nStream size                              : 2.52 GiB (91%)\nWriting library                          : x264 core 142 r2431 ac76440\nEncoding settings                        : cabac=1 / ref=4 / deblock=1:-1:-1 / analyse=0x3:0x113 / me=hex / subme=2 / psy=1 / psy_rd=1.00:0.15 / mixed_ref=0 / me_range=16 / chroma_me=1 / trellis=0 / 8x8dct=1 / cqm=0 / deadzone=21,11 / fast_pskip=1 / chroma_qp_offset=0 / threads=12 / lookahead_threads=4 / sliced_threads=0 / slices=4 / nr=0 / decimate=1 / interlaced=0 / bluray_compat=0 / constrained_intra=0 / bframes=3 / b_pyramid=1 / b_adapt=1 / b_bias=0 / direct=1 / weightb=1 / open_gop=0 / weightp=0 / keyint=23 / keyint_min=1 / scenecut=40 / intra_refresh=0 / rc_lookahead=10 / rc=2pass / mbtree=1 / bitrate=3300 / ratetol=1.0 / qcomp=0.60 / qpmin=10 / qpmax=51 / qpstep=4 / cplxblur=20.0 / qblur=0.5 / vbv_maxrate=40000 / vbv_bufsize=30000 / nal_hrd=vbr / filler=0 / ip_ratio=1.40 / aq=1:1.00\nLanguage                                 : English\nDefault                                  : Yes\nForced                                   : No\nDURATION                                 : 01:51:30.851000000\nNUMBER_OF_FRAMES                         : 160420\nNUMBER_OF_BYTES                          : 2759799400\n_STATISTICS_WRITING_APP                  : mkvmerge v7.0.0 ('Where We Going') 32bit built on Jun  9 2014 15:08:34\n_STATISTICS_WRITING_DATE_UTC             : 2014-10-13 06:35:04\n_STATISTICS_TAGS                         : BPS DURATION NUMBER_OF_FRAMES NUMBER_OF_BYTES\n\nAudio\nID                                       : 2\nFormat                                   : AC-3\nFormat/Info                              : Audio Coding 3\nMode extension                           : CM (complete main)\nFormat settings, Endianness              : Big\nCodec ID                                 : A_AC3\nDuration                                 : 1h 51mn\nBit rate mode                            : Constant\nBit rate                                 : 256 Kbps\nChannel(s)                               : 2 channels\nChannel positions                        : Front: L R\nSampling rate                            : 48.0 KHz\nBit depth                                : 16 bits\nCompression mode                         : Lossy\nStream size                              : 204 MiB (7%)\nLanguage                                 : English\nDefault                                  : Yes\nForced                                   : No\n\n\n\n[URL=http://someimage.com/whF0uWz][IMG]http://t1.someimage.com/whF0uWz.jpg[/IMG][/URL] [URL=http://someimage.com/qbjYdlM][IMG]http://t1.someimage.com/qbjYdlM.jpg[/IMG][/URL] [URL=http://someimage.com/0xf6MTq][IMG]http://t1.someimage.com/0xf6MTq.jpg[/IMG][/URL] [URL=http://someimage.com/w25ftHI][IMG]http://t1.someimage.com/w25ftHI.jpg[/IMG][/URL] [URL=http://someimage.com/SH2N18X][IMG]http://t1.someimage.com/SH2N18X.jpg[/IMG][/URL] \n\n[center][IMG]http://lookpic.com/O/i2/1627/3XHuD17L.gif[/IMG]\n\n\n[URL=https://imageshack.com/i/muoe4og][IMG]http://imageshack.com/a/img822/6910/oe4o.gif[/IMG][/URL]\n\n\n[IMG]http://lookpic.com/O/i2/1627/3XHuD17L.gif[/IMG][/center]","torrent":{"xt":"urn:btih:5b71e79fc060722d8b3f6dba8c3ae0eaeb0d08b5","amp;dn":"I+Am+Ali%282014%29%28720pMKV%29-desspratt-","amp;tr":["udp%3A%2F%2Ftracker.openbittorrent.com%3A80","udp%3A%2F%2Fopen.demonii.com%3A1337","udp%3A%2F%2Ftracker.coppersurfer.tk%3A6969","udp%3A%2F%2Fexodus.desync.com%3A6969"],"infoHash":"5b71e79fc060722d8b3f6dba8c3ae0eaeb0d08b5","infoHashBuffer":{"type":"Buffer","data":[91,113,231,159,192,96,114,45,139,63,109,186,140,58,224,234,235,13,8,181]},"announce":[],"urlList":[]}}